<?xml version="1.0" encoding="utf-8"?>
<!-- Generator: Adobe Illustrator 28.2.0, SVG Export Plug-In . SVG Version: 6.00 Build 0)  -->
<svg version="1.1" id="Layer_1" xmlns="http://www.w3.org/2000/svg" xmlns:xlink="http://www.w3.org/1999/xlink" x="0px" y="0px"
	 viewBox="0 0 512 512" style="enable-background:new 0 0 512 512;" xml:space="preserve">
<style type="text/css">
	.st0{fill:#FFFFFF;}
</style>
<path class="st0" d="M256,192l-39.5-39.5c4.9-12.6,7.5-26.2,7.5-40.5C224,50.1,173.9,0,112,0S0,50.1,0,112s50.1,112,112,112
	c14.3,0,27.9-2.7,40.5-7.5L192,256l-39.5,39.5c-12.6-4.9-26.2-7.5-40.5-7.5C50.1,288,0,338.1,0,400s50.1,112,112,112
	s112-50.1,112-112c0-14.3-2.7-27.9-7.5-40.5L499.2,76.8c7.1-7.1,7.1-18.5,0-25.6c-28.3-28.3-74.1-28.3-102.4,0L256,192z
	 M278.6,342.6l118.2,118.2c28.3,28.3,74.1,28.3,102.4,0c7.1-7.1,7.1-18.5,0-25.6L342.6,278.6L278.6,342.6z M64,112
	c0-26.5,21.5-48,48-48s48,21.5,48,48s-21.5,48-48,48S64,138.5,64,112z M112,352c26.5,0,48,21.5,48,48s-21.5,48-48,48s-48-21.5-48-48
	S85.5,352,112,352z"/>
</svg>
